<?xml version="1.0" encoding="utf-8"?>
<!-- Generator: Adobe Illustrator 24.3.0, SVG Export Plug-In . SVG Version: 6.00 Build 0)  -->
<svg version="1.1" id="Layer_1" xmlns="http://www.w3.org/2000/svg" xmlns:xlink="http://www.w3.org/1999/xlink" x="0px" y="0px"
	 viewBox="0 0 65 65" style="enable-background:new 0 0 65 65;" xml:space="preserve">
<style type="text/css">
	.st0{fill-rule:evenodd;clip-rule:evenodd;fill:#CC6699;}
	.st1{fill:#FFFFFF;}
</style>
<g>
	<path class="st0" d="M33.2,4.6c15.8,0,28.7,12.8,28.7,28.7c0,15.8-12.8,28.7-28.7,28.7c-15.8,0-28.7-12.8-28.7-28.7
		C4.6,17.4,17.4,4.6,33.2,4.6"/>
	<path class="st1" d="M51.2,16.8c-1.3-5.1-9.7-6.8-17.7-3.9c-4.8,1.7-9.9,4.3-13.6,7.8c-4.4,4.1-5.1,7.7-4.8,9.2
		c1,5.3,8.3,8.7,11.2,11.3v0c-0.9,0.4-7.3,3.7-8.8,7c-1.6,3.5,0.3,6,1.5,6.4c3.8,1,7.6-0.8,9.7-3.9c2-3,1.8-6.9,1-8.8
		c1.2-0.3,2.6-0.5,4.4-0.3c5,0.6,6,3.7,5.8,5c-0.2,1.3-1.2,2-1.6,2.3c-0.4,0.2-0.5,0.3-0.4,0.5c0,0.2,0.2,0.2,0.5,0.2
		c0.4-0.1,2.6-1.1,2.7-3.5c0.1-3.1-2.8-6.5-8.1-6.4c-2.2,0-3.5,0.2-4.5,0.6c-0.1-0.1-0.1-0.2-0.2-0.2c-3.2-3.4-9.2-5.9-8.9-10.5
		c0.1-1.7,0.7-6.1,11.5-11.5c8.8-4.4,15.9-3.2,17.1-0.5c1.7,3.8-3.8,11-13,12c-3.5,0.4-5.3-1-5.8-1.5c-0.5-0.5-0.6-0.6-0.7-0.5
		c-0.3,0.2-0.1,0.6,0,0.9c0.3,0.7,1.4,2,3.3,2.6c1.7,0.6,5.8,0.9,10.8-1.1C48.1,27.8,52.5,21.8,51.2,16.8 M27.5,42.8
		c0.4,1.5,0.4,3-0.1,4.3c0,0.1-0.1,0.3-0.2,0.4c-0.1,0.1-0.1,0.3-0.2,0.4c-0.3,0.7-0.8,1.3-1.3,1.9c-1.7,1.8-4,2.5-5,1.9
		c-1.1-0.6-0.5-3.2,1.4-5.2c2.1-2.2,5.1-3.6,5.1-3.6l0,0C27.4,42.9,27.4,42.8,27.5,42.8"/>
</g>
</svg>
