<?xml version="1.0" encoding="utf-8"?>
<!-- Generator: Adobe Illustrator 24.3.0, SVG Export Plug-In . SVG Version: 6.00 Build 0)  -->
<svg version="1.1" id="Layer_1" xmlns="http://www.w3.org/2000/svg" xmlns:xlink="http://www.w3.org/1999/xlink" x="0px" y="0px"
	 viewBox="0 0 133 133" style="enable-background:new 0 0 133 133;" xml:space="preserve">
<style type="text/css">
	.st0{fill-rule:evenodd;clip-rule:evenodd;fill:#CC6699;}
	.st1{fill:#FFFFFF;}
</style>
<g>
	<path class="st0" d="M67.2,4.6c34.6,0,62.7,28.1,62.7,62.7c0,34.6-28.1,62.7-62.7,62.7c-34.6,0-62.7-28.1-62.7-62.7
		C4.6,32.6,32.6,4.6,67.2,4.6"/>
	<path class="st1" d="M106.5,31.4c-2.8-11.1-21.3-14.8-38.8-8.6C57.4,26.5,46.1,32.3,38,39.9c-9.6,9-11.2,16.8-10.5,20.1
		c2.2,11.5,18.1,19.1,24.6,24.7v0c-1.9,0.9-16,8-19.2,15.3c-3.5,7.7,0.6,13.2,3.2,13.9c8.2,2.3,16.7-1.8,21.2-8.6
		c4.4-6.5,4-15,2.1-19.2c2.6-0.7,5.7-1,9.6-0.5c11,1.3,13.1,8.1,12.7,11c-0.4,2.9-2.7,4.5-3.5,4.9c-0.8,0.5-1,0.6-0.9,1
		c0.1,0.5,0.5,0.5,1.1,0.4c0.9-0.2,5.8-2.3,6-7.6c0.3-6.7-6.2-14.3-17.6-14.1c-4.7,0.1-7.7,0.5-9.8,1.3c-0.2-0.2-0.3-0.4-0.5-0.5
		c-7.1-7.5-20.1-12.9-19.6-23c0.2-3.7,1.5-13.4,25.1-25.1c19.3-9.6,34.8-7,37.5-1.1c3.8,8.4-8.3,24-28.4,26.2
		c-7.7,0.9-11.7-2.1-12.7-3.2c-1.1-1.2-1.2-1.2-1.6-1c-0.6,0.4-0.2,1.4,0,2c0.6,1.6,3.1,4.3,7.3,5.7c3.7,1.2,12.7,1.9,23.5-2.3
		C99.8,55.4,109.3,42.3,106.5,31.4 M54.8,88.1c0.9,3.4,0.8,6.5-0.1,9.4c-0.1,0.3-0.2,0.6-0.3,0.9c-0.1,0.3-0.3,0.6-0.4,0.9
		c-0.7,1.5-1.7,2.9-2.9,4.2c-3.6,4-8.7,5.5-10.9,4.2c-2.4-1.4-1.2-7,3-11.4c4.5-4.8,11.1-7.9,11.1-7.9l0,0
		C54.4,88.3,54.6,88.2,54.8,88.1"/>
</g>
</svg>
